<svg width="74" height="58" fill="none" xmlns="http://www.w3.org/2000/svg"><path d="M11.86 0H2.055C.92 0 0 .92 0 2.055v8.327c0 1.134.92 2.054 2.055 2.054h9.804c1.135 0 2.055-.92 2.055-2.054V2.055C13.914.92 12.994 0 11.86 0Z" fill="#DA0081"/><path d="M71.59 0h-8.435A2.054 2.054 0 0 0 61.1 2.055v33.704c0 .685-.901.937-1.226.324L40.264.901C39.94.324 39.365 0 38.68 0H24.656a2.054 2.054 0 0 0-2.054 2.055v53.854c0 1.154.937 2.055 2.054 2.055h8.435a2.054 2.054 0 0 0 2.055-2.055V21.196c0-.685.901-.938 1.226-.325L56.522 57.1c.325.577.901.901 1.586.901h13.41a2.054 2.054 0 0 0 2.055-2.055V2.055A2.054 2.054 0 0 0 71.517 0h.072Z" fill="#200020"/></svg>