<svg xmlns="http://www.w3.org/2000/svg" width="16" height="16" viewBox="0 0 16 16">
  <g id="Notificaciones" transform="translate(0 0)">
    <g id="Grupo_9397" data-name="Grupo 9397" transform="translate(3.527 1.341)">
      <g id="Trazado_11889" data-name="Trazado 11889" transform="translate(-3.552 -1.341)" fill="none">
        <path d="M7.974,1.341a1.13,1.13,0,1,1-1.13,1.13A1.133,1.133,0,0,1,7.974,1.341Z" stroke="none"/>
        <path d="M 7.973999977111816 2.091000080108643 C 7.768019676208496 2.091000080108643 7.593999862670898 2.26501989364624 7.593999862670898 2.470999956130981 C 7.593999862670898 2.676440000534058 7.768019676208496 2.849999904632568 7.973999977111816 2.849999904632568 C 8.17997932434082 2.849999904632568 8.354000091552734 2.676440000534058 8.354000091552734 2.470999956130981 C 8.354000091552734 2.26501989364624 8.17997932434082 2.091000080108643 7.973999977111816 2.091000080108643 M 7.973999977111816 1.341000080108643 C 8.594999313354492 1.341000080108643 9.104000091552734 1.848999977111816 9.104000091552734 2.470999956130981 C 9.104000091552734 3.092000007629395 8.594999313354492 3.599999904632568 7.973999977111816 3.599999904632568 C 7.352999687194824 3.599999904632568 6.843999862670898 3.092000007629395 6.843999862670898 2.470999956130981 C 6.843999862670898 1.848999977111816 7.352999687194824 1.341000080108643 7.973999977111816 1.341000080108643 Z" stroke="none" fill="#000"/>
      </g>
      <g id="Trazado_11890" data-name="Trazado 11890" transform="translate(-3.552 -1.391)" fill="none">
        <path d="M6.79,13.3c-.083-.007-.171-.016-.258-.025a1.151,1.151,0,0,0-.014.133,1.381,1.381,0,0,0,1.434,1.313A1.381,1.381,0,0,0,9.386,13.41c0-.036-.008-.069-.011-.1-.4.022-.805.036-1.225.034Q7.45,13.343,6.79,13.3Z" stroke="none"/>
        <path d="M 7.14673900604248 13.82155323028564 C 7.309279441833496 14.06157875061035 7.609403610229492 14.22299957275391 7.951999664306641 14.22299957275391 C 8.289251327514648 14.22299957275391 8.585307121276855 14.0666332244873 8.749513626098633 13.83278560638428 C 8.570560455322266 13.83774375915527 8.398077964782715 13.84018993377686 8.229860305786133 13.84018993377686 L 8.152109146118164 13.84000015258789 L 8.050629615783691 13.8402099609375 C 7.741056442260742 13.8402099609375 7.438440322875977 13.83394908905029 7.14673900604248 13.82155323028564 M 6.531999588012695 13.27700042724609 C 6.618999481201172 13.28600025177002 6.706999778747559 13.29500007629395 6.789999961853027 13.30200004577637 C 7.229000091552734 13.32999992370605 7.682998657226562 13.34199905395508 8.149999618530273 13.34000015258789 C 8.56999397277832 13.34198474884033 8.976999282836914 13.32800006866455 9.375 13.30599975585938 C 9.378000259399414 13.34099960327148 9.38599967956543 13.37399959564209 9.38599967956543 13.40999984741211 C 9.38599967956543 14.13199996948242 8.740999221801758 14.72299957275391 7.951999664306641 14.72299957275391 C 7.163000106811523 14.72299957275391 6.517999649047852 14.13199996948242 6.517999649047852 13.40999984741211 C 6.517999649047852 13.36400032043457 6.526999473571777 13.32100009918213 6.531999588012695 13.27700042724609 Z" stroke="none" fill="#000"/>
      </g>
      <path id="Trazado_11891" data-name="Trazado 11891" d="M12.382,11.565a2.544,2.544,0,0,0-.495-1.009,4.107,4.107,0,0,1-.77-2.392V6.5A3.233,3.233,0,0,0,8.842,3.385a4.075,4.075,0,0,0-.868-.069,4.064,4.064,0,0,0-.868.069A3.232,3.232,0,0,0,4.831,6.5V8.164a4.114,4.114,0,0,1-.77,2.392,2.544,2.544,0,0,0-.495,1.009,1.025,1.025,0,0,0,.225.831,4.617,4.617,0,0,0,2.874.979c.422.029.86.041,1.309.04s.887-.011,1.309-.04a4.612,4.612,0,0,0,2.873-.979A1.022,1.022,0,0,0,12.382,11.565Z" transform="translate(-3.552 -1.341)" fill="none" stroke="#000" stroke-width="0.75"/>
    </g>
    <rect id="Rectángulo_7325" data-name="Rectángulo 7325" width="16" height="16" transform="translate(0 0)" fill="none"/>
  </g>
</svg>
