<svg width="11" height="11" viewBox="0 0 11 11" fill="none" xmlns="http://www.w3.org/2000/svg">
<path fill-rule="evenodd" clip-rule="evenodd" d="M5.79104 0.856084C4.65981 0.78519 3.5416 1.12964 2.64634 1.82478C1.75108 2.51991 1.14033 3.51792 0.928761 4.63145C0.717189 5.74498 0.919339 6.89744 1.49726 7.87248C1.55644 7.97233 1.57205 8.09209 1.54043 8.20377L1.04444 9.95556L2.79623 9.45957L2.91159 9.86704L3.12752 9.50274C4.10256 10.0807 5.25502 10.2828 6.36855 10.0712C7.48208 9.85967 8.48009 9.24892 9.17522 8.35366C9.87036 7.4584 10.2148 6.34019 10.1439 5.20896C10.073 4.07773 9.59166 3.01128 8.79019 2.20981C7.98872 1.40834 6.92227 0.926978 5.79104 0.856084ZM2.85616 10.3229C3.97353 10.9354 5.27103 11.1419 6.52665 10.9033C7.84286 10.6532 9.02254 9.93132 9.8442 8.8731C10.6659 7.81488 11.073 6.49313 10.9892 5.15599C10.9054 3.81885 10.3364 2.55827 9.38908 1.61092C8.44173 0.66356 7.18115 0.094574 5.84401 0.0107754C4.50687 -0.0730231 3.18512 0.334129 2.1269 1.1558C1.06868 1.97746 0.346765 3.15714 0.0966809 4.47335C-0.141889 5.72897 0.0645775 7.02647 0.677138 8.14384L0.228313 9.72905C0.186504 9.87336 0.184085 10.0263 0.221326 10.1718C0.258744 10.3181 0.334823 10.4516 0.441591 10.5584C0.54836 10.6652 0.681882 10.7413 0.828161 10.7787C0.973754 10.8159 1.12665 10.8135 1.27097 10.7717L2.85616 10.3229Z" fill="#065EA6"/>
<path d="M5.50539 6.12981C5.85621 6.12981 6.14061 5.84541 6.14061 5.49458C6.14061 5.14376 5.85621 4.85936 5.50539 4.85936C5.15456 4.85936 4.87016 5.14376 4.87016 5.49458C4.87016 5.84541 5.15456 6.12981 5.50539 6.12981Z" fill="#065EA6"/>
<path d="M2.96449 6.12981C3.31531 6.12981 3.59971 5.84541 3.59971 5.49458C3.59971 5.14376 3.31531 4.85936 2.96449 4.85936C2.61366 4.85936 2.32926 5.14376 2.32926 5.49458C2.32926 5.84541 2.61366 6.12981 2.96449 6.12981Z" fill="#065EA6"/>
<path d="M8.04629 6.12981C8.39711 6.12981 8.68151 5.84541 8.68151 5.49458C8.68151 5.14376 8.39711 4.85936 8.04629 4.85936C7.69546 4.85936 7.41106 5.14376 7.41106 5.49458C7.41106 5.84541 7.69546 6.12981 8.04629 6.12981Z" fill="#065EA6"/>
</svg>
