<svg width="190" height="40" viewBox="0 0 190 40" fill="none" xmlns="http://www.w3.org/2000/svg">
<path fill-rule="evenodd" clip-rule="evenodd" d="M98.9026 9.35474H92.5177L83.9796 25.7627H83.9053L81.5295 9.35474H75.1445L79.0795 33.2613H85.7614L98.9026 9.35474Z" fill="#ED1B2F"/>
<path fill-rule="evenodd" clip-rule="evenodd" d="M144.043 8.31537L139.292 33.2614H133.5L138.252 8.31537H144.043Z" fill="#ED1B2F"/>
<path fill-rule="evenodd" clip-rule="evenodd" d="M171.587 31.9992C173.295 32.7416 175.745 33.8553 179.235 33.4841C185.174 32.8159 188.144 31.034 188.589 26.6536C189.183 20.7883 179.977 22.8672 179.977 20.1201C179.977 18.858 181.907 18.264 183.318 18.264C185.323 18.264 187.401 19.3777 189.183 20.4171L190 15.7397C187.773 14.9973 184.58 14.5518 183.095 14.5518C178.789 14.5518 173.889 17.1504 173.889 21.308C173.889 27.4703 182.501 25.3172 182.501 27.9158C182.501 30.5143 180.348 29.6976 179.383 29.6976C177.675 29.6976 174.928 29.1037 172.553 27.0991L171.587 31.9992Z" fill="#ED1B2F"/>
<path fill-rule="evenodd" clip-rule="evenodd" d="M126.67 9.35474H120.359L111.821 25.7627H111.747L109.297 9.35474H102.986L106.921 33.2613H113.603L126.67 9.35474Z" fill="#ED1B2F"/>
<path fill-rule="evenodd" clip-rule="evenodd" d="M143.226 33.2614H148.943L153.769 8.31537H147.978L143.226 33.2614Z" fill="#ED1B2F"/>
<path fill-rule="evenodd" clip-rule="evenodd" d="M163.049 33.2614H169.063C169.731 27.8416 171.068 23.6097 171.29 20.7884C171.662 16.8535 169.286 14.7004 163.717 14.7004C160.97 14.7004 158.743 15.0716 156.293 15.5171L155.699 20.0459C157.704 19.0065 160.154 18.6353 162.381 18.6353C164.608 18.6353 165.499 19.5262 165.499 20.7884C165.499 22.0505 165.499 21.3081 165.425 21.4566C164.608 21.4566 163.495 21.6051 162.233 21.6793C156.887 21.9763 152.804 24.2036 152.432 28.5098C152.135 32.0735 153.843 33.6326 157.629 33.6326C161.416 33.6326 161.416 32.8159 163.346 31.3311V31.7023L163.049 33.1872V33.2614ZM158.223 28.4355C158.001 26.4309 159.56 24.9461 162.827 24.8718C163.198 24.8718 163.866 24.7976 164.683 24.7233C164.46 26.7279 164.089 28.5098 164.089 28.5098C163.124 29.2522 162.084 29.6977 160.822 29.7719C159.56 29.9204 158.372 29.5492 158.223 28.4355Z" fill="#ED1B2F"/>
<path fill-rule="evenodd" clip-rule="evenodd" d="M51.5347 33.2613H57.6969L60.2212 28.1385H68.1654L68.6851 33.2613H74.9216L71.0609 9.35474H64.4532L51.4604 33.2613H51.5347ZM67.5714 23.9066H62.3743L66.4578 15.8882L67.4972 23.9066H67.5714Z" fill="#ED1B2F"/>
<path fill-rule="evenodd" clip-rule="evenodd" d="M123.849 33.2614H129.64L133.055 15.1458H127.264L123.849 33.2614ZM127.635 12.6215H133.797L134.614 8.31537H128.452L127.561 12.6215H127.635Z" fill="#ED1B2F"/>
<path fill-rule="evenodd" clip-rule="evenodd" d="M39.433 4.23191C30.9692 9.57749 26.8115 20.8626 26.8115 20.8626C21.3174 12.5473 8.69595 14.4776 8.69595 14.4776C28.2221 17.5958 26.8115 33.2614 26.8115 33.2614C28.4449 24.649 34.6071 14.4034 36.092 12.3245C44.0361 1.70761 52.7969 0 52.7969 0C47.0801 2.59854 43.071 6.53348 43.071 6.53348C44.0361 7.42441 44.8528 8.53807 45.4468 9.72598C49.6044 17.9671 44.0361 29.3264 30.9692 36.0826C19.3871 42.0221 5.42921 40.6115 1.34578 32.3704C-2.73764 24.1293 2.60793 13.1412 15.5264 6.2365C23.9902 1.70761 33.345 1.1879 39.6557 4.23191H39.433ZM22.2826 24.0551C22.2826 24.0551 10.4778 22.0505 10.4036 26.6536C10.4036 28.584 12.2597 31.034 18.7189 32.0734C19.8326 32.2219 23.6933 32.7416 26.2176 31.1083C26.2176 31.1083 24.7327 34.375 17.4567 33.8553C16.1946 33.8553 8.77019 33.1871 6.24589 28.1385C5.5777 26.8021 5.50345 22.9414 10.9233 22.0505C13.8188 21.605 19.3129 21.902 22.2084 23.9808L22.2826 24.0551Z" fill="#ED1B2F"/>
</svg>
