<svg xmlns="http://www.w3.org/2000/svg" width="90.038" height="42.211" viewBox="0 0 90.038 42.211">
  <g id="Grupo_21274" data-name="Grupo 21274" transform="translate(-0.5 -5.001)">
    <path id="Trazado_14305" data-name="Trazado 14305" d="M189.245,70.131c0-1.035-.034-1.869-.067-2.637H190.5l.067,1.386h.034a3.175,3.175,0,0,1,2.871-1.569c1.952,0,3.421,1.653,3.421,4.106,0,2.9-1.77,4.338-3.672,4.338a2.83,2.83,0,0,1-2.487-1.269h-.038v4.39h-1.449Zm1.452,2.153a3.3,3.3,0,0,0,.067.6,2.267,2.267,0,0,0,2.2,1.719c1.555,0,2.456-1.269,2.456-3.121,0-1.619-.851-3-2.4-3a2.344,2.344,0,0,0-2.22,1.82,2.375,2.375,0,0,0-.1.6Z" transform="translate(-142.286 -43.23)" fill="#fff"/>
    <path id="Trazado_14306" data-name="Trazado 14306" d="M200.861,62.927h1.468V74.774h-1.468Z" transform="translate(-144.406 -42.435)" fill="#fff"/>
    <path id="Trazado_14307" data-name="Trazado 14307" d="M210.006,75.57l-.117-1.018h-.05a3.01,3.01,0,0,1-2.469,1.2,2.3,2.3,0,0,1-2.47-2.32c0-1.953,1.735-3.021,4.857-3v-.164A1.666,1.666,0,0,0,207.92,68.4a4.022,4.022,0,0,0-2.1.6l-.334-.968a5.009,5.009,0,0,1,2.654-.718c2.469,0,3.071,1.685,3.071,3.3v3.021a11.27,11.27,0,0,0,.133,1.936Zm-.217-4.123c-1.6-.034-3.421.25-3.421,1.82a1.3,1.3,0,0,0,1.388,1.4,2.011,2.011,0,0,0,1.952-1.352,1.566,1.566,0,0,0,.082-.467Z" transform="translate(-145.139 -43.23)" fill="#fff"/>
    <path id="Trazado_14308" data-name="Trazado 14308" d="M216.983,64.7v2.32h2.1v1.118h-2.1v4.356c0,1,.284,1.569,1.1,1.569a3.275,3.275,0,0,0,.851-.1l.067,1.1a3.6,3.6,0,0,1-1.3.2,2.035,2.035,0,0,1-1.585-.617,2.99,2.99,0,0,1-.567-2.1V68.14h-1.256V67.022h1.252V65.086Z" transform="translate(-146.844 -42.757)" fill="#fff"/>
    <path id="Trazado_14309" data-name="Trazado 14309" d="M226.5,75.57l-.117-1.018h-.052a3.009,3.009,0,0,1-2.47,1.2,2.3,2.3,0,0,1-2.47-2.32c0-1.953,1.735-3.021,4.857-3v-.164A1.666,1.666,0,0,0,224.41,68.4a4.022,4.022,0,0,0-2.1.6l-.334-.968a5.013,5.013,0,0,1,2.654-.718c2.47,0,3.071,1.685,3.071,3.3v3.021a11.353,11.353,0,0,0,.133,1.936Zm-.217-4.123c-1.6-.034-3.421.25-3.421,1.82a1.3,1.3,0,0,0,1.386,1.4,2.011,2.011,0,0,0,1.952-1.352,1.515,1.515,0,0,0,.082-.467Z" transform="translate(-148.131 -43.23)" fill="#fff"/>
    <path id="Trazado_14310" data-name="Trazado 14310" d="M154.283,63.852c-2.923-.082-6.7,7.514-7.694,10.033-.561,1.405,1.175,2.416,1.736,1.012.929-2.34,4.1-8.868,5.963-8.857s4.926,6.574,5.832,8.922c.543,1.411,2.292.42,1.748-.991C160.892,71.441,157.2,63.8,154.283,63.852Zm-7.828,5.5c-.008-.088-.024-.173-.037-.259a5.162,5.162,0,0,0-.512-1.505c0-.01-.011-.019-.016-.029-.062-.116-.131-.227-.2-.336-.047-.073-.1-.143-.144-.21-.033-.046-.067-.091-.1-.135-.07-.092-.139-.177-.207-.256s-.151-.173-.232-.255l-.05-.052c-3.074-3.038-9.773-2.726-11.687-1.92-1.295.544-.848,2.149.573,1.523a13.57,13.57,0,0,1,6.807,0c1.859.466,3.807,2.093,3.807,3.84-.133,4.35-5.888,4.522-8.22,3.957V68.3a.842.842,0,0,0-1.466-.685.836.836,0,0,0-.172.316.845.845,0,0,0-.025.359v5.443a1.5,1.5,0,0,0,1.31,1.659c1.756.4,9.128.832,10.439-4.407.026-.1.044-.2.064-.3s.037-.178.052-.27a4.492,4.492,0,0,0,.031-1.011A.306.306,0,0,1,146.455,69.35Zm30.926-4.322A.96.96,0,1,0,175.486,65v9.512a.956.956,0,0,0,1.642.8.957.957,0,0,0,.254-.742Zm-4.747-.55c-.828,2.355-3.664,8.928-5.383,8.945s-4.652-6.5-5.525-8.84c-.525-1.4-2.128-.384-1.6,1.018.938,2.515,4.464,10.1,7.165,10.006,2.7.041,6.076-7.612,6.966-10.145.5-1.409-1.119-2.4-1.618-.984Z" transform="translate(-132 -42.591)" fill="#fff"/>
    <path id="Trazado_14311" data-name="Trazado 14311" d="M228.555,55.992c-1.473-1.228-3.985-3.063-4.726-3.6a21.888,21.888,0,0,1,.563-3.366c.3-1.179.566-2.2,0-2.911a2.5,2.5,0,0,0-2.1-.7H218.38a2.291,2.291,0,0,0-1.923.751,1.959,1.959,0,0,0-.345,1.437c-4.206-2.251-7.849-3.584-9.866-3.6h-.006c-2.167.013-6.208,1.549-10.8,4.108-.655.363-4.627,2.668-6.555,4.125-.031.022-3.192,2.269-4.944,3.713a11.721,11.721,0,0,0-1.906,1.934.458.458,0,0,0-.115.3.479.479,0,0,0,.85.3h0s.136-.186.23-.31a11.423,11.423,0,0,1,1.542-1.516c1.723-1.421,4.858-3.648,4.9-3.679,1.9-1.433,5.811-3.7,6.456-4.062,4.463-2.483,8.329-3.974,10.344-3.987,2.012.013,5.877,1.5,10.34,3.987a.479.479,0,0,0,.516-.032.462.462,0,0,0,.178-.477c-.026-.109-.06-.222-.093-.334-.019-.062-.038-.124-.055-.188a1.4,1.4,0,0,1,.082-1.164,1.512,1.512,0,0,1,1.17-.384H222.3c.7,0,1.17.12,1.35.345.281.354.061,1.208-.172,2.113a22.787,22.787,0,0,0-.611,3.779.463.463,0,0,0,.192.409c.032.023,3.177,2.3,4.888,3.718,2.081,1.719,2.964,3.329,2.484,4.523-.531,1.324-2.743,2.12-5.5,1.986l-.965-.047-.6-.029a.485.485,0,0,0-.354.132.463.463,0,0,0-.142.344,13.73,13.73,0,0,0,3.04,7.839c2.292,2.691,2.632,5.806.93,8.545-2.034,3.274-7.129,5.906-13.927,4.4a.479.479,0,0,0-.254.012,23.781,23.781,0,0,1-12.824,0,.48.48,0,0,0-.254-.013c-6.8,1.5-11.9-1.129-13.933-4.4a6.562,6.562,0,0,1-.737-5.6.562.562,0,0,0,.02-.181.139.139,0,0,0,0-.026.45.45,0,0,0-.375-.39.465.465,0,0,0-.491.211l-.007.013a1.28,1.28,0,0,0-.1.293,7.532,7.532,0,0,0,.891,6.168c1.778,2.865,5.672,5.284,10.908,5.283a18.639,18.639,0,0,0,3.911-.428,24.85,24.85,0,0,0,13.171,0c7.192,1.543,12.617-1.316,14.815-4.853,1.9-3.056,1.52-6.654-1-9.6a13.134,13.134,0,0,1-2.809-6.786h.071l.967.047c3.212.157,5.737-.851,6.428-2.573C231.761,60.436,231.65,58.554,228.555,55.992Z" transform="translate(-140.968 -39)" fill="#fff"/>
  </g>
</svg>
