<svg width="201" height="32" viewBox="0 0 201 32" fill="none" xmlns="http://www.w3.org/2000/svg">
<path d="M47.2606 17.4896C47.2606 15.6394 46.761 14.2096 45.7683 13.2001C44.7724 12.1938 43.3405 11.6874 41.4632 11.6874C40.8173 11.6874 40.1936 11.767 39.5986 11.9199C39.0004 12.0759 38.5168 12.302 38.1445 12.595V8.21946C38.1445 7.84368 38.0617 7.56981 37.9027 7.39785C37.7404 7.22589 37.4572 7.13672 37.0531 7.13672H35.3062C34.918 7.13672 34.6412 7.22589 34.4694 7.4074C34.3008 7.58892 34.2148 7.85642 34.2148 8.21946V22.5562C34.8767 23.0466 35.7549 23.4479 36.8463 23.76C37.9345 24.072 39.064 24.2281 40.2286 24.2281C42.5387 24.2281 44.2855 23.6389 45.4756 22.4575C46.6624 21.276 47.2574 19.6233 47.2574 17.4928V17.4864L47.2606 17.4896ZM42.4878 20.4576C41.9564 21.1041 41.1386 21.4289 40.0377 21.4289C39.6845 21.4289 39.3377 21.3907 38.9972 21.3142C38.6568 21.241 38.3768 21.1423 38.1477 21.0085V16.5597C38.1477 15.8878 38.3958 15.3751 38.889 15.0216C39.3854 14.6681 39.9677 14.493 40.6454 14.493C41.5809 14.493 42.2555 14.735 42.6691 15.2318C43.0796 15.7222 43.2896 16.4929 43.2896 17.5438C43.2896 18.8367 43.0223 19.808 42.4878 20.4544V20.4576Z" fill="#00B800"/>
<path d="M59.3168 12.0785C58.4354 11.8173 57.4204 11.6836 56.2749 11.6836C54.7858 11.6836 53.478 11.9702 52.3453 12.5434C51.2157 13.1166 50.3343 13.9255 49.7043 14.9637C49.0743 16.005 48.7593 17.2119 48.7593 18.5908C48.7593 20.3774 49.2238 21.7626 50.1529 22.7435C51.0821 23.7275 52.323 24.2179 53.8758 24.2179C54.859 24.2179 55.7022 24.0873 56.3958 23.8262C57.0863 23.5619 57.6813 23.1479 58.1649 22.5747L58.429 23.4313C58.4768 23.581 58.5468 23.6893 58.6359 23.7498C58.725 23.8135 58.8586 23.8485 59.0368 23.8485H60.9523C61.2577 23.8485 61.4646 23.8007 61.5727 23.702C61.6777 23.6033 61.7287 23.4154 61.7287 23.1352V13.2026C61 12.709 60.1982 12.3332 59.3168 12.0721V12.0785ZM57.9995 19.1354C57.9995 19.8392 57.7354 20.3965 57.2104 20.8073C56.6854 21.2149 56.0681 21.4187 55.3553 21.4187C54.4835 21.4187 53.828 21.183 53.3921 20.7085C52.9562 20.2309 52.7366 19.5048 52.7366 18.5208C52.7366 17.2438 53.0548 16.247 53.6944 15.5369C54.3339 14.8235 55.1835 14.4669 56.2526 14.4669C56.9304 14.4669 57.5158 14.5879 57.9995 14.8363V19.1386V19.1354Z" fill="#00B800"/>
<path d="M89.0834 20.6632C88.9688 20.4658 88.8575 20.3671 88.7429 20.3671C88.6602 20.3671 88.5234 20.4244 88.3324 20.539C87.8965 20.8193 87.4479 21.0358 86.9865 21.1887C86.5283 21.3447 85.9874 21.4212 85.3765 21.4212C84.2628 21.4212 83.4101 21.1346 82.8182 20.5613C82.2264 19.9881 81.9337 19.1283 81.9337 17.9787C81.9337 16.8991 82.2296 16.0425 82.8182 15.4088C83.4069 14.7782 84.2119 14.463 85.2301 14.463C85.8442 14.463 86.3692 14.5362 86.8051 14.6827C87.2411 14.8292 87.6929 15.0521 88.1606 15.3451C88.3547 15.4597 88.4915 15.517 88.5711 15.517C88.6856 15.517 88.797 15.4183 88.9115 15.2209L89.7357 13.7687C89.8343 13.6223 89.882 13.4821 89.882 13.3516C89.882 13.2051 89.7993 13.0713 89.6402 12.9567C89.0261 12.53 88.3484 12.2115 87.6038 11.9981C86.8592 11.7848 85.9619 11.6797 84.9119 11.6797C83.4896 11.6797 82.255 11.944 81.205 12.4663C80.155 12.9885 79.35 13.7273 78.7931 14.6795C78.2363 15.6317 77.9563 16.7272 77.9563 17.9755C77.9563 19.9913 78.564 21.5358 79.7732 22.609C80.9855 23.6822 82.6973 24.2204 84.9119 24.2204C85.9619 24.2204 86.872 24.1121 87.6388 23.9019C88.4056 23.6885 89.1279 23.3605 89.8088 22.9179C90.0029 22.7873 90.0984 22.6536 90.0984 22.523C90.0984 22.4402 90.057 22.3351 89.9775 22.2046L89.0802 20.6569L89.0834 20.6632Z" fill="#00B800"/>
<path d="M102.721 13.3721C101.531 12.248 99.854 11.6875 97.6935 11.6875C95.533 11.6875 93.8752 12.2512 92.6852 13.3721C91.4983 14.4963 90.9033 16.0248 90.9033 17.9547C90.9033 19.8845 91.4983 21.4194 92.6852 22.5404C93.8752 23.6645 95.5425 24.225 97.6935 24.225C99.8444 24.225 101.534 23.6645 102.721 22.5404C103.908 21.4162 104.503 19.8877 104.503 17.9547C104.503 16.0216 103.908 14.4931 102.721 13.3721ZM99.8953 20.5787C99.3862 21.1647 98.6512 21.4513 97.6903 21.4513C96.7294 21.4513 96.0166 21.1551 95.5107 20.5628C95.0016 19.9705 94.747 19.1011 94.747 17.9515C94.747 16.8019 95.0016 15.9388 95.5107 15.3529C96.0166 14.7701 96.7421 14.4803 97.6903 14.4803C98.6385 14.4803 99.3894 14.7733 99.8953 15.3529C100.404 15.9388 100.656 16.8019 100.656 17.9515C100.656 19.1011 100.404 19.9959 99.8953 20.5755V20.5787Z" fill="#00B800"/>
<path d="M72.0825 16.286V22.8015C72.0825 23.1614 72.1684 23.4289 72.3371 23.6008C72.5057 23.7728 72.7921 23.8588 73.1994 23.8588H75.0162C75.4044 23.8588 75.6813 23.7728 75.8531 23.6008C76.0217 23.4289 76.1076 23.1614 76.1076 22.8015V16.0408C76.1076 14.5982 75.7067 13.5122 74.9081 12.783C74.1094 12.0537 73.0466 11.6875 71.7198 11.6875C70.7525 11.6875 69.887 11.834 69.1266 12.1301C68.3661 12.4263 67.7361 12.8339 67.2333 13.3594L67.1602 12.4996C67.1442 12.3371 67.087 12.2193 66.9915 12.1556C66.8929 12.0888 66.7497 12.0569 66.5556 12.0569H64.6146C64.3251 12.0569 64.1278 12.1079 64.0324 12.2034C63.9337 12.3021 63.886 12.49 63.886 12.7702V22.8015C63.886 23.1614 63.9719 23.4289 64.1405 23.6008C64.3092 23.7728 64.5955 23.8588 65.0028 23.8588H66.7974C67.2015 23.8588 67.4847 23.7728 67.647 23.6008C67.8093 23.4289 67.8888 23.1614 67.8888 22.8015V16.4834C67.8888 15.8943 68.1243 15.4134 68.592 15.0472C69.0629 14.6778 69.6357 14.4931 70.3134 14.4931C70.9434 14.4931 71.3952 14.6332 71.6689 14.9102C71.9425 15.1905 72.0794 15.6459 72.0794 16.2891L72.0825 16.286Z" fill="#00B800"/>
<path d="M138.648 13.4314C137.461 12.3073 135.784 11.75 133.62 11.75C131.457 11.75 129.802 12.3105 128.612 13.4314C127.425 14.5556 126.83 16.0841 126.83 18.0172C126.83 19.9502 127.425 21.4787 128.612 22.5997C129.802 23.7238 131.469 24.2843 133.62 24.2843C135.771 24.2843 137.461 23.7206 138.648 22.5997C139.838 21.4756 140.433 19.947 140.433 18.0172C140.433 16.0873 139.838 14.5524 138.648 13.4314ZM135.803 20.5425C135.3 21.1221 134.572 21.4119 133.617 21.4119C132.662 21.4119 131.956 21.1157 131.453 20.5297C130.951 19.9438 130.702 19.084 130.702 17.9471C130.702 16.8102 130.951 15.9504 131.453 15.3708C131.959 14.7944 132.675 14.5046 133.617 14.5046C134.559 14.5046 135.3 14.7944 135.803 15.3708C136.306 15.9504 136.557 16.807 136.557 17.9471C136.557 19.0872 136.306 19.9661 135.803 20.5457V20.5425Z" fill="#00B800"/>
<path d="M200.784 12.1517C200.558 11.9893 200.294 11.8683 199.994 11.7951C199.695 11.7218 199.314 11.6836 198.843 11.6836C197.389 11.6836 196.176 12.2186 195.206 13.2822L195.107 12.4956C195.091 12.3332 195.037 12.2154 194.951 12.1517C194.862 12.0848 194.719 12.053 194.528 12.053H192.587C192.298 12.053 192.1 12.104 192.005 12.1995C191.906 12.2982 191.858 12.4861 191.858 12.7663V22.7976C191.858 23.1575 191.944 23.4249 192.113 23.5969C192.282 23.7689 192.568 23.8549 192.975 23.8549H194.77C195.174 23.8549 195.457 23.7689 195.619 23.5969C195.782 23.4249 195.861 23.1575 195.861 22.7976V16.7247C195.861 16.0368 196.097 15.4891 196.564 15.0783C197.035 14.6675 197.624 14.4637 198.334 14.4637C198.884 14.4637 199.368 14.572 199.788 14.7853C199.886 14.8363 199.966 14.8586 200.03 14.8586C200.176 14.8586 200.281 14.7598 200.345 14.5624L200.952 12.7186C200.984 12.6198 201 12.5466 201 12.4988C201 12.3842 200.927 12.2695 200.78 12.1549L200.784 12.1517Z" fill="#00B800"/>
<path d="M118.105 11.6738C116.992 11.6738 115.904 11.8299 114.844 12.1515C113.788 12.47 112.916 12.8648 112.238 13.3425V17.804C112.238 18.2626 113.38 19.3071 114.997 20.1479C115.099 20.202 115.035 20.358 114.927 20.323C111.662 19.2339 109.874 17.2404 109.167 16.4251C109.053 16.8328 108.693 18.0556 108.467 18.8295C108.34 19.253 108.483 19.7084 108.83 19.9854C109.492 20.5173 110.704 21.3962 112.241 22.0745V27.7525C112.241 28.1124 112.327 28.3799 112.496 28.5518C112.668 28.7238 112.944 28.813 113.333 28.813H115.079C115.484 28.813 115.767 28.727 115.929 28.5518C116.088 28.3799 116.171 28.1124 116.171 27.7525V23.5999C116.74 23.7814 117.991 24.2145 119.442 24.2145C121.284 24.2145 122.719 23.6508 123.744 22.5299C124.771 21.4057 125.284 19.8899 125.284 17.9696C125.284 13.7724 122.891 11.677 118.109 11.677L118.105 11.6738ZM120.616 20.5013C120.155 21.1223 119.464 21.4344 118.541 21.4344C117.832 21.4344 117.253 21.237 116.807 20.8453C116.362 20.4536 116.142 19.9027 116.142 19.1989V14.8233C116.594 14.5972 117.208 14.4794 117.984 14.4794C119.101 14.4794 119.932 14.7405 120.479 15.266C121.03 15.7914 121.303 16.6672 121.303 17.8964C121.303 19.011 121.074 19.8772 120.613 20.5013H120.616Z" fill="#00B800"/>
<path d="M187.305 12.0858V12.0921C186.424 11.831 185.409 11.6973 184.263 11.6973C182.774 11.6973 181.466 11.9839 180.334 12.5571C179.204 13.1303 178.323 13.9392 177.693 14.9773C177.063 16.0155 176.748 17.2256 176.748 18.6045C176.748 20.391 177.209 21.7763 178.141 22.7603C179.07 23.7412 180.311 24.2348 181.861 24.2348C182.844 24.2348 183.687 24.101 184.384 23.8399C185.078 23.5787 185.67 23.1616 186.153 22.5884L186.417 23.4482C186.465 23.5947 186.535 23.7029 186.624 23.7634C186.713 23.8303 186.847 23.8622 187.025 23.8622H188.941C189.246 23.8622 189.453 23.8144 189.561 23.7157C189.666 23.617 189.717 23.4291 189.717 23.1488V13.2163C188.988 12.7227 188.186 12.3469 187.305 12.0858ZM185.985 19.1427C185.985 19.8465 185.724 20.4038 185.199 20.8146C184.67 21.2222 184.056 21.4292 183.344 21.4292C182.472 21.4292 181.816 21.1935 181.38 20.719C180.944 20.2414 180.725 19.5153 180.725 18.5313C180.725 17.2543 181.04 16.2575 181.683 15.5474C182.322 14.834 183.172 14.4774 184.241 14.4774C184.919 14.4774 185.501 14.6016 185.985 14.8468V19.1459V19.1427Z" fill="#00B800"/>
<path d="M173.776 7.14258H171.959C171.571 7.14258 171.294 7.23174 171.122 7.41326C170.953 7.59478 170.867 7.86228 170.867 8.22532V22.8041C170.867 23.1639 170.953 23.4314 171.122 23.6034C171.291 23.7754 171.571 23.8614 171.959 23.8614H173.776C174.18 23.8614 174.463 23.7754 174.625 23.6034C174.788 23.4314 174.867 23.1639 174.867 22.8041V8.22532C174.867 7.84954 174.784 7.57567 174.625 7.40052C174.463 7.22856 174.18 7.14258 173.776 7.14258Z" fill="#00B800"/>
<path d="M147.933 11.6621C146.819 11.6621 145.731 11.8182 144.671 12.1398C143.615 12.4614 142.743 12.8563 142.065 13.334V27.744C142.065 28.1038 142.151 28.3681 142.323 28.5433C142.492 28.7153 142.768 28.8012 143.16 28.8012H144.907C145.311 28.8012 145.591 28.7184 145.753 28.5433C145.915 28.3713 145.995 28.1038 145.995 27.744V23.12C146.383 23.4799 146.854 23.7506 147.411 23.9321C147.968 24.1136 148.588 24.2028 149.266 24.2028C151.108 24.2028 152.543 23.6423 153.571 22.5182C154.595 21.394 155.108 19.8782 155.108 17.9547C155.108 13.7607 152.718 11.6621 147.933 11.6621ZM150.443 20.4864C149.982 21.1106 149.291 21.4195 148.369 21.4195C147.656 21.4195 147.083 21.2221 146.634 20.8336C146.192 20.4419 145.969 19.8909 145.969 19.1872V14.8116C146.421 14.5823 147.035 14.4677 147.812 14.4677C148.929 14.4677 149.762 14.7288 150.309 15.2511C150.86 15.7765 151.13 16.6523 151.13 17.8815C151.13 18.9961 150.901 19.8655 150.44 20.4864H150.443Z" fill="#00B800"/>
<path d="M167.708 12.0605H165.913C165.509 12.0605 165.223 12.1497 165.051 12.3312C164.882 12.5127 164.796 12.7834 164.796 13.1433V19.4136C164.796 20.0378 164.59 20.5282 164.179 20.8881C163.769 21.2479 163.231 21.4294 162.569 21.4294C161.955 21.4294 161.49 21.2829 161.175 20.9868C160.86 20.6906 160.701 20.2257 160.701 19.5856V13.1433C160.701 12.7675 160.619 12.4936 160.459 12.3185C160.297 12.1465 160.014 12.0605 159.61 12.0605H157.793C157.405 12.0605 157.128 12.1497 156.956 12.3312C156.784 12.5127 156.702 12.7834 156.702 13.1433V19.7321C156.702 21.2224 157.103 22.3466 157.901 23.1013C158.7 23.856 159.763 24.2318 161.089 24.2318C162.948 24.2318 164.408 23.665 165.477 22.5345L165.576 23.4452C165.592 23.7255 165.786 23.8624 166.158 23.8624H168.099C168.389 23.8624 168.586 23.8115 168.681 23.7159C168.78 23.6172 168.828 23.4293 168.828 23.1491V13.1433C168.828 12.7834 168.742 12.5127 168.573 12.3312C168.405 12.1529 168.115 12.0605 167.711 12.0605H167.714H167.708Z" fill="#00B800"/>
<path d="M7.62061 22.5149V27.7821C7.62061 28.2598 8.00561 28.6451 8.4829 28.6451H12.5939C13.0712 28.6451 13.4562 28.2598 13.4562 27.7821V23.3429C13.418 23.3429 13.383 23.3429 13.3448 23.3429C11.143 23.3429 9.24655 23.0308 7.62061 22.5117V22.5149Z" fill="#00B800"/>
<path d="M13.3448 18.1644C14.764 18.1644 15.9826 17.8204 16.9881 17.2727C16.9881 17.2727 16.9881 17.2727 16.9849 17.2727C15.9285 17.2727 15.0694 16.9797 14.4076 16.397C13.7458 15.8142 13.4212 14.9989 13.4212 13.9512V7.86242C14.0926 7.52486 15.0026 7.3529 16.1576 7.3529C17.8154 7.3529 19.05 7.74459 19.8645 8.5248C20.6695 9.28909 21.0736 10.1616 21.0896 11.9195H26.9856C26.7501 6.09819 23.1991 3.18753 16.3358 3.18753H16.3326C14.678 3.18435 13.0616 3.42319 11.4898 3.90087C9.92112 4.37536 8.62609 4.96131 7.61743 5.66828V6.80834L7.63016 16.0658C9.2211 17.83 11.2734 18.1644 13.348 18.1644H13.3448Z" fill="#00B800"/>
<path d="M21.1437 12.7074H21.1087C21.1023 12.8284 21.0927 12.9462 21.0832 13.0609C21.0768 13.1214 21.045 13.3252 21.0355 13.3698C20.7587 14.5608 20.0395 15.8473 18.91 16.8823C17.6022 18.0829 15.7472 18.9491 13.3958 18.9491C11.4293 18.9491 9.37067 18.6529 7.68108 17.1721C6.45287 16.0957 5.41876 14.3984 4.75374 11.7266L0 13.9271C0.614105 16.4428 2.82552 20.0541 7.68108 21.6941C9.28475 22.2355 11.1748 22.5603 13.3894 22.5603C13.4276 22.5603 13.4626 22.5603 13.5008 22.5603C15.4608 22.5508 17.2172 22.2801 18.7636 21.8088C23.9533 20.2356 26.7915 16.4269 26.9761 12.7106H21.1373L21.1437 12.7074Z" fill="#969696"/>
</svg>
