<svg xmlns="http://www.w3.org/2000/svg" xmlns:xlink="http://www.w3.org/1999/xlink" width="168" height="40" viewBox="0 0 168 40">
    <defs>
        <path id="r07tqv431a" d="M25.221 6.934c0-2.721.78-4.077 3.996-3.936.607.023 1.492.187 2.168.307l-.198 1.24c-.69-.068-1.61-.264-2.039-.284-1.445-.063-1.724.549-1.724 2.673 0 1.06.067 1.743.317 2.15.25.41.681.542 1.407.506.43-.015 1.231-.095 2.033-.258l.258 1.256c-.688.132-1.566.253-2.218.276-3.218.128-4-1.207-4-3.93zm29.349-3.94c2.382 0 3.663 1.093 3.74 3.446l.004.231v.87h-5.126l.034.491c.113 1.064.48 1.546 1.56 1.546.651 0 1.974-.166 2.783-.319l.225-.045.232 1.279-.852.16c-.836.137-1.627.21-2.41.21-1.584 0-2.536-.413-3.091-1.112-.555-.7-.715-1.685-.715-2.827 0-2.882 1.34-3.93 3.616-3.93zM50.083.118v10.557l-.816.086c-.756.07-1.354.098-1.986.098-3.584 0-4.318-1.475-4.318-4.098 0-2.332.806-3.776 3.523-3.776.444 0 .857.024 1.213.06l.257.031V.117h2.127zM12.774 2.998c1.06 0 1.832.25 2.339.69.46.402.702.962.742 1.638l.006.207v5.105l-.972.109c-.981.1-1.991.158-3.059.05-1.75-.183-2.829-1.082-2.829-2.504 0-1.286.77-2.204 2.787-2.441.776-.092 1.698-.108 1.904-.11h.042V5.45l-.013-.275c-.061-.594-.346-.869-.947-.869-.665 0-1.465.142-2.508.346l-.32.062-.233-1.284c1.264-.251 2.14-.432 3.061-.432zm22.679-.003l.44.014c2.144.138 3.405 1.322 3.405 3.796 0 1.315-.198 2.326-.777 3.009-.58.682-1.54 1.036-3.068 1.036-3.022 0-3.908-1.237-3.908-4.073 0-2.674 1.27-3.782 3.908-3.782zM4.293.111l.427.011C6.8.235 8.027 1.194 8.027 2.945c0 .566-.097 1.025-.271 1.394-.174.369-.425.649-.732.857.747.371 1.398 1.046 1.398 2.323 0 2.355-1.597 3.146-3.662 3.192l-.195.002H0V.111h4.292zm16.354 2.872c1.373 0 2.294.334 2.872.974.577.64.81 1.585.81 2.81v3.94h-2.138v-3.94l-.02-.647c-.095-1.38-.537-1.857-1.524-1.857-.557 0-1.162.124-1.55.227v6.218h-2.1V3.75l.457-.173c1.058-.382 2.064-.595 3.193-.595zm14.806 1.298c-.642 0-1.074.108-1.345.474-.271.367-.381.99-.381 2.022 0 2.209.293 2.798 1.726 2.798 1.36 0 1.644-.653 1.663-2.554v-.216l-.007-.347c-.075-1.662-.702-2.177-1.656-2.177zm11.033-.018c-.53.073-.86.26-1.058.65-.197.39-.262.983-.262 1.873 0 1.871.22 2.683 1.806 2.773.53.03.86-.007.955-.02l.029-.004v-5.16l-.308-.068c-.336-.062-.751-.096-1.162-.044zM13.734 7.007l-.724.02c-.207.011-.44.03-.674.059-.362.045-.645.16-.838.357-.193.196-.295.474-.295.848 0 .556.183 1.046.96 1.2.416.083.842.071 1.325.025l.246-.026V7.007zm-9.094-.96H2.138v3.181h2.427l.402-.016c.874-.079 1.297-.47 1.297-1.693 0-1.347-.884-1.462-1.624-1.472zm50.008-1.766c-.486 0-.837.118-1.073.424-.213.277-.333.705-.375 1.337l-.012.218h2.974l-.039-.521c-.131-1.106-.566-1.458-1.475-1.458zM4.292 1.597H2.138v2.976H4.45l.366-.02c.78-.1 1.059-.562 1.059-1.608 0-1.069-.36-1.348-1.583-1.348z"/>
    </defs>
    <g fill="none" fill-rule="evenodd">
        <g>
            <g>
                <g transform="translate(-76.000000, -48.000000) translate(76.000000, 48.000000) translate(37.314523, 13.965188)">
                    <use fill="#00246F" xlink:href="#r07tqv431a"/>
                    <path fill="#0081FF" d="M86.546 10.717L88.652 10.717 88.652 3.138 86.546 3.138zM86.546 1.99L88.652 1.99 88.652.396 86.546.396zM96.825.117v10.557l-1.533.13c-.445.034-.845.054-1.268.054-3.581 0-4.32-1.475-4.32-4.098 0-2.332.81-3.776 3.527-3.776.555 0 1.058.037 1.467.091V.117h2.127zm-2.432 4.19c-.335-.062-.75-.097-1.162-.044-.53.073-.86.26-1.058.65-.197.389-.262.983-.262 1.873 0 1.871.22 2.694 1.803 2.773.104.004.238.01.376.01.185 0 .429-.031.608-.034v-5.16zM106.225 10.708h2.096V4.49c.387-.103.992-.227 1.55-.227.987 0 1.43.478 1.525 1.857l.02.647v3.94h2.138v-3.94c0-1.225-.233-2.17-.811-2.81-.577-.64-1.498-.974-2.872-.974-1.123 0-2.13.213-3.189.595l-.457.173v6.957zM115.308 1.381v1.792h-1.3v1.285h1.3v3.758c0 1.776.32 2.642 2.188 2.642.256 0 .733-.005 1.388-.101l.519-.089-.25-1.259c-.58.053-.91.11-1.237.06-.278-.04-.386-.235-.422-.697l-.017-.556V4.458h1.682V3.173h-1.682V1.38h-2.17zM101.481 2.99c2.461 0 3.742 1.163 3.742 3.668v.875H100.1l.034.492c.113 1.065.476 1.543 1.562 1.543.714 0 2.24-.194 3.01-.368l.227 1.283-.853.16c-.837.14-1.625.215-2.406.215-1.586 0-2.538-.414-3.094-1.113-.555-.7-.714-1.685-.714-2.827 0-2.885 1.336-3.929 3.615-3.929zm.08 1.28c-.489 0-.839.12-1.075.427-.236.308-.357.804-.386 1.557h2.972l-.04-.523c-.133-1.11-.568-1.46-1.472-1.46zM123.318 2.995c2.46 0 3.744 1.164 3.744 3.676v.87h-5.126l.034.491c.112 1.064.475 1.546 1.556 1.546.722 0 2.245-.2 3.012-.364l.232 1.279-.852.16c-.836.137-1.628.21-2.41.21-1.584 0-2.534-.413-3.089-1.112-.554-.7-.712-1.685-.712-2.827 0-2.882 1.327-3.93 3.61-3.93zm.075 1.286c-.487 0-.836.118-1.072.424-.236.307-.356.802-.385 1.555h2.968l-.038-.521c-.131-1.106-.566-1.458-1.473-1.458zM85.31 9.332c-.803.163-1.606.243-2.038.258-.723.036-1.152-.097-1.401-.505-.25-.408-.318-1.09-.318-2.151 0-2.124.276-2.736 1.719-2.673.432.02 1.355.216 2.041.284l.198-1.24c-.675-.12-1.56-.284-2.164-.307-3.22-.14-4.002 1.215-4.002 3.936 0 2.723.789 4.058 4.002 3.93.65-.023 1.527-.144 2.215-.276l-.253-1.256zM78.752 9.332c-.802.163-1.603.243-2.04.258-.722.036-1.15-.097-1.399-.505-.248-.408-.316-1.09-.316-2.151 0-2.124.27-2.736 1.715-2.673.437.02 1.358.216 2.04.284l.2-1.24c-.67-.12-1.558-.284-2.167-.307-3.215-.14-3.996 1.215-3.996 3.936 0 2.723.788 4.058 3.998 3.93.653-.023 1.533-.144 2.217-.276l-.252-1.256zM67 0c3.15 0 4.952 1.56 4.952 5.248l-.012.669c-.12 3.241-1.207 4.92-4.94 4.92-1.976 0-3.236-.414-4.004-1.325-.767-.91-1.04-2.318-1.04-4.303 0-3.732 1.59-5.209 5.043-5.209zm0 1.472c-2.06 0-2.85.763-2.85 3.737 0 3.145.47 4.142 2.85 4.142l.418-.014c1.983-.14 2.348-1.35 2.348-4.09 0-1.407-.266-2.35-.745-2.943-.479-.592-1.17-.832-2.022-.832z"/>
                </g>
                <path fill="#0081FF" d="M3.33 23.32L16.281 36.308 29.24 23.32 26.226 20.3 16.281 30.262 9.354 23.32 16.281 16.379 19.237 19.334 22.248 16.314 16.281 10.336z" transform="translate(-76.000000, -48.000000) translate(76.000000, 48.000000)"/>
                <path fill="#0081FF" d="M29.235 16.322L16.284 3.333 3.327 16.322 6.336 19.339 16.284 9.374 23.212 16.322 16.284 23.262 13.33 20.304 10.313 23.319 16.284 29.304 29.235 16.322" transform="translate(-76.000000, -48.000000) translate(76.000000, 48.000000)"/>
            </g>
        </g>
    </g>
</svg>
