<?xml version="1.0" encoding="UTF-8"?>
<svg width="66px" height="20px" viewBox="0 0 66 20" version="1.1" xmlns="http://www.w3.org/2000/svg" xmlns:xlink="http://www.w3.org/1999/xlink">
    <!-- Generator: Sketch 55.2 (78181) - https://sketchapp.com -->
    <title>Combined Shape</title>
    <desc>Created with Sketch.</desc>
    <g id="BBVA---BBVA,-sin-canal-transaccional" stroke="none" stroke-width="1" fill="none" fill-rule="evenodd">
        <g id="CC-01-05-00-09" transform="translate(-902.000000, -217.000000)" fill="white">
            <path d="M949.450235,219.673128 C949.508334,219.566226 949.619883,219.498832 949.743285,219.498832 L952.48763,219.498832 C952.673545,219.498832 952.792066,219.6966 952.703756,219.8616 L943.777721,236.568198 C943.654552,236.798269 943.321996,236.798269 943.199059,236.568198 L934.272559,219.8616 C934.184482,219.6966 934.30277,219.498832 934.488686,219.498832 L937.228615,219.498832 C937.349693,219.498832 937.463334,219.566226 937.519108,219.673128 L943.189763,230.45855 C943.312932,230.693269 943.661524,230.693269 943.784461,230.45855 L949.450235,219.673128 Z M952.666759,234.065241 C952.610985,234.174699 952.499203,234.242093 952.376034,234.242093 L949.631456,234.242093 C949.445773,234.242093 949.327252,234.044326 949.415562,233.879326 L958.34183,217.172727 C958.464766,216.942424 958.797323,216.942424 958.920259,217.172727 L967.844435,233.877002 C967.932513,234.042002 967.814224,234.239537 967.628308,234.239537 L964.888379,234.239537 C964.767301,234.239537 964.653428,234.172143 964.597886,234.065241 L958.927231,223.280051 C958.804062,223.0451 958.45547,223.0451 958.332534,223.280051 L952.666759,234.065241 Z M910.284859,234.242024 C912.743592,234.242024 913.805634,233.554136 913.805634,231.625031 C913.805634,229.696157 912.720352,229.006179 910.284859,229.006179 L905.176831,229.006179 C904.995563,229.006179 904.849155,229.152587 904.849155,229.333855 L904.849155,233.914348 C904.849155,234.095615 904.995563,234.242024 905.176831,234.242024 L910.284859,234.242024 Z M905.181479,221.992517 C905.000211,221.992517 904.851479,222.138925 904.853776,222.322517 L904.853776,226.182355 C904.853776,226.363855 905.000211,226.510031 905.181479,226.510031 L910.217465,226.510031 C912.078944,226.510031 913.020141,225.722446 913.020141,224.25139 C913.020141,222.787305 912.074296,221.992517 910.217465,221.992517 L905.181479,221.992517 Z M913.949718,227.453784 C913.949718,227.453784 916.657113,228.225101 916.65479,231.566932 C916.65479,234.990333 914.512113,236.740263 910.447535,236.740263 L902.327676,236.740263 C902.146408,236.740263 902,236.593855 902,236.412587 L902,219.826601 C902,219.645101 902.146408,219.498925 902.327676,219.496601 L910.82169,219.496601 C913.777746,219.496601 915.87162,221.320664 915.87162,224.004819 C915.87162,225.580453 915.132606,226.863502 913.949718,227.453784 Z M927.707511,234.242024 C930.166244,234.242024 931.228286,233.554136 931.228286,231.625031 C931.228286,229.696157 930.142772,229.006179 927.707511,229.006179 L922.599483,229.006179 C922.418215,229.006179 922.271807,229.152587 922.271807,229.333855 L922.271807,233.914348 C922.271807,234.095615 922.418215,234.242024 922.599483,234.242024 L927.707511,234.242024 Z M922.604131,221.992517 C922.422863,221.992517 922.274131,222.138925 922.276428,222.322517 L922.276428,226.182355 C922.276428,226.363855 922.422863,226.510031 922.604131,226.510031 L927.640117,226.510031 C929.501596,226.510031 930.442793,225.722446 930.442793,224.25139 C930.442793,222.787305 929.496948,221.992517 927.640117,221.992517 L922.604131,221.992517 Z M931.37237,227.453784 C931.37237,227.453784 934.079765,228.225101 934.077442,231.564608 C934.077442,234.98801 931.934532,236.737707 927.870187,236.737707 L919.750328,236.737707 C919.569061,236.737707 919.422652,236.591298 919.422652,236.410263 L919.422652,219.824277 C919.422652,219.64301 919.569061,219.496601 919.750328,219.496601 L928.244342,219.496601 C931.200399,219.496601 933.294272,221.320664 933.294272,224.004819 C933.294272,225.580453 932.555258,226.863502 931.37237,227.453784 Z" id="Combined-Shape"></path>
        </g>
    </g>
</svg>