<svg width="26" height="26" viewBox="0 0 26 26" fill="none" xmlns="http://www.w3.org/2000/svg">
<path fill-rule="evenodd" clip-rule="evenodd" d="M13 2C6.92487 2 2 6.92487 2 13C2 19.0751 6.92487 24 13 24C19.0751 24 24 19.0751 24 13C24 6.92487 19.0751 2 13 2ZM0 13C0 5.8203 5.8203 0 13 0C20.1797 0 26 5.8203 26 13C26 20.1797 20.1797 26 13 26C5.8203 26 0 20.1797 0 13Z" fill="#9E9FA1"/>
<path fill-rule="evenodd" clip-rule="evenodd" d="M13 7C13.2652 7 13.5195 7.10536 13.7071 7.29289L17.9446 11.5304C18.3351 11.9209 18.3351 12.5541 17.9446 12.9446C17.554 13.3351 16.9209 13.3351 16.5303 12.9446L13 9.41421L9.46956 12.9446C9.07903 13.3351 8.44587 13.3351 8.05534 12.9446C7.66482 12.5541 7.66482 11.9209 8.05534 11.5304L12.2928 7.29289C12.4804 7.10536 12.7347 7 13 7Z" fill="#9E9FA1"/>
<path fill-rule="evenodd" clip-rule="evenodd" d="M13 7C13.5522 7 14 7.44772 14 8V18C14 18.5523 13.5523 19 13 19C12.4477 19 12 18.5523 12 18V8C12 7.44772 12.4477 7 13 7Z" fill="#9E9FA1"/>
</svg>
